PathFileType  4	(X/Y/Z) C:\Users\15086\Documents\GitHub\mocap-processing\NordTesting\KristenNordTest\
DataRate	CameraRate	NumFrames	NumMarkers	Units	OrigDataRate	OrigDataStartFrame	OrigNumFrames
  200.0		  200.0		   4		     52		 mm	  200.0	      1442	   2882
Frame#	Time	C7			R_Shoulder			L_Shoulder			Sternum			R_humerus			R_elbow_med			R_elbow_lat			R_forearm			R_wrist_radius			R_wrist_ulna			L_humerus			L_elbow_med			L_elbow_lat			L_forearm			L_wrist_radius			L_wrist_ulna			r.ASIS			r.PSIS			r_IC			L.ASIS			L.PSIS			l_IC			r_thigh1			r_thigh2			r_thigh3			r_thigh4			r_thigh5			r_knee			r_mknee			r_shank_antsup			r_sh2			r_sh3			r_sh4			r_ankle			r_mankle			r_calc			r_5meta			r_toe			L_thigh1			L_thigh2			L_thigh3			L_thigh4			L_knee			L_mknee			L_shank_antsup			L_sh2			L_sh3			L_ankle			L_mankle			L_calc			L_5meta			L_toe			
		X1	Y1	Z1	X2	Y2	Z2	X3	Y3	Z3	X4	Y4	Z4	X5	Y5	Z5	X6	Y6	Z6	X7	Y7	Z7	X8	Y8	Z8	X9	Y9	Z9	X10	Y10	Z10	X11	Y11	Z11	X12	Y12	Z12	X13	Y13	Z13	X14	Y14	Z14	X15	Y15	Z15	X16	Y16	Z16	X17	Y17	Z17	X18	Y18	Z18	X19	Y19	Z19	X20	Y20	Z20	X21	Y21	Z21	X22	Y22	Z22	X23	Y23	Z23	X24	Y24	Z24	X25	Y25	Z25	X26	Y26	Z26	X27	Y27	Z27	X28	Y28	Z28	X29	Y29	Z29	X30	Y30	Z30	X31	Y31	Z31	X32	Y32	Z32	X33	Y33	Z33	X34	Y34	Z34	X35	Y35	Z35	X36	Y36	Z36	X37	Y37	Z37	X38	Y38	Z38	X39	Y39	Z39	X40	Y40	Z40	X41	Y41	Z41	X42	Y42	Z42	X43	Y43	Z43	X44	Y44	Z44	X45	Y45	Z45	X46	Y46	Z46	X47	Y47	Z47	X48	Y48	Z48	X49	Y49	Z49	X50	Y50	Z50	X51	Y51	Z51	X52	Y52	Z52	

1442	7.20500	1200.161	1211.339	-686.475	1319.977	1195.866	-726.490	1070.074	1209.931	-735.065	1197.626	1126.092	-798.173	1494.124	1185.847	-686.061	1629.392	1104.367	-684.681	1619.652	1165.005	-634.808	1618.519	1257.137	-728.337	1595.625	1304.844	-835.450	1633.259	1328.334	-814.552	867.706	1191.853	-700.969	755.580	1105.565	-718.757	752.437	1161.794	-665.876	791.697	1262.630	-769.865	837.459	1302.744	-848.059	783.362	1319.472	-847.276	1309.254	695.728	-603.402	1260.596	848.421	-487.445	1342.703	804.715	-594.029	1071.494	693.020	-590.931	1145.651	841.007	-482.131	1047.819	790.591	-586.165	1380.435	492.159	-478.431	1380.914	387.049	-430.690	1391.815	380.870	-376.671	1389.503	539.183	-381.337	1374.455	430.388	-335.321	1380.906	309.037	-352.337	1253.713	320.178	-335.263	1395.909	310.554	-223.833	1382.408	318.919	-103.977	1397.897	387.292	-226.564	1386.781	401.461	-112.573	1369.674	376.284	61.239	1292.400	349.823	51.779	1311.326	436.495	81.904	1390.281	289.546	146.107	1354.793	233.550	129.347	1002.812	488.035	-468.636	1006.787	361.123	-409.346	1007.054	543.524	-362.084	1013.705	417.016	-307.461	997.591	326.590	-321.114	1123.636	305.672	-319.046	981.908	321.171	-208.778	997.293	410.871	-221.151	1011.279	415.179	-99.856	1021.027	392.669	87.348	1088.126	336.270	60.340	1074.565	435.458	94.584	1009.977	279.877	172.886	1043.770	223.236	145.644
1443	7.21000	1199.995	1211.389	-686.920	1319.953	1195.756	-726.745	1070.056	1209.831	-735.249	1197.615	1125.951	-798.427	1494.125	1185.742	-686.345	1629.373	1104.247	-684.945	1619.666	1164.902	-635.100	1618.527	1256.996	-728.626	1595.616	1304.693	-835.750	1633.248	1328.218	-814.834	867.678	1191.734	-701.111	755.576	1105.402	-718.863	752.413	1161.680	-665.971	791.684	1262.461	-770.049	837.415	1302.562	-848.236	783.320	1319.293	-847.454	1309.250	695.620	-603.464	1260.593	848.415	-487.556	1342.689	804.668	-594.150	1071.502	692.896	-591.074	1145.804	840.877	-482.467	1047.820	790.512	-586.274	1380.436	492.195	-478.445	1380.898	387.029	-430.747	1391.792	380.872	-376.648	1389.473	539.174	-381.349	1374.090	430.129	-335.215	1380.896	309.074	-352.333	1253.726	320.182	-335.271	1395.952	310.564	-223.735	1382.379	318.929	-103.992	1397.885	387.288	-226.546	1385.762	401.585	-112.452	1369.673	376.311	61.245	1292.430	349.780	51.768	1311.314	436.524	81.889	1390.304	289.607	146.084	1354.774	233.618	129.353	1002.832	488.067	-468.659	1006.967	361.199	-409.665	1006.880	542.757	-361.715	1013.678	417.012	-307.480	997.600	326.587	-321.120	1123.639	305.659	-319.069	981.879	321.107	-208.761	997.126	410.758	-220.951	1011.261	415.216	-99.840	1021.046	392.650	87.329	1088.158	336.311	60.317	1074.447	435.364	94.527	1009.992	279.894	172.895	1043.776	223.227	145.668
1444	7.21500	1199.998	1211.307	-687.145	1319.975	1195.665	-726.984	1070.052	1209.703	-735.450	1197.606	1125.785	-798.646	1494.183	1185.531	-686.507	1629.366	1104.118	-685.224	1619.660	1164.811	-635.374	1618.527	1256.879	-728.904	1595.621	1304.534	-836.033	1633.254	1328.070	-815.134	868.505	1191.521	-701.265	755.602	1105.250	-718.961	752.420	1161.544	-666.101	791.690	1262.209	-770.203	837.403	1302.369	-848.475	783.290	1319.077	-847.670	1309.243	695.606	-603.522	1260.585	848.381	-487.666	1342.683	804.634	-594.276	1071.494	692.939	-591.079	1145.925	840.835	-482.473	1047.839	790.486	-586.352	1380.504	492.201	-478.475	1380.918	386.991	-430.682	1391.799	380.888	-376.592	1389.501	539.180	-381.389	1374.087	430.139	-335.210	1380.002	308.638	-352.366	1253.732	320.182	-335.259	1395.903	310.571	-223.851	1382.414	318.960	-103.982	1397.879	387.302	-226.507	1385.881	401.587	-112.440	1369.667	376.368	61.273	1292.447	349.782	51.761	1311.337	436.557	81.887	1390.324	289.635	146.086	1354.784	233.646	129.353	1002.878	488.015	-468.763	1006.838	361.115	-409.431	1006.889	542.715	-361.740	1013.668	417.022	-307.535	997.585	326.587	-321.131	1123.672	305.659	-319.069	981.938	321.037	-208.853	997.270	410.908	-221.156	1011.294	415.207	-99.860	1021.059	392.693	87.325	1088.155	336.333	60.306	1074.469	435.353	94.477	1010.018	279.944	172.922	1043.812	223.233	145.700
1445	7.22000	1199.993	1211.254	-687.375	1319.942	1195.565	-727.227	1070.030	1209.581	-735.693	1197.613	1125.710	-798.846	1494.128	1185.545	-686.900	1629.264	1103.922	-685.507	1619.654	1164.730	-635.629	1618.543	1256.754	-729.191	1595.616	1304.366	-836.305	1633.234	1328.009	-815.440	868.497	1191.371	-701.438	755.609	1105.083	-719.063	752.405	1161.431	-666.226	791.672	1262.018	-770.367	837.379	1302.215	-848.646	782.919	1318.598	-848.116	1309.255	695.554	-603.612	1260.568	848.377	-487.787	1342.663	804.622	-594.373	1071.497	692.860	-591.192	1145.783	840.873	-482.700	1047.836	790.420	-586.443	1380.489	492.129	-478.497	1380.947	387.010	-430.688	1391.814	380.877	-376.611	1389.501	539.214	-381.389	1374.071	430.163	-335.207	1379.996	308.696	-352.361	1253.715	320.212	-335.279	1395.964	310.582	-223.725	1382.415	318.943	-103.977	1397.928	387.325	-226.545	1385.763	401.627	-112.439	1369.687	376.405	61.245	1292.453	349.765	51.749	1311.366	436.546	81.889	1390.338	289.681	146.099	1354.792	233.713	129.378	1002.893	487.978	-468.762	1006.854	361.092	-409.453	1006.861	542.727	-361.793	1013.659	417.039	-307.570	997.624	326.537	-321.171	1123.678	305.674	-319.080	981.769	321.008	-208.623	997.263	410.895	-221.195	1011.258	415.243	-99.860	1021.062	392.694	87.316	1088.135	336.394	60.310	1074.570	435.504	94.467	1010.037	279.946	172.946	1043.792	223.239	145.704
